<svg width="128" height="38" viewBox="0 0 128 38" fill="none" xmlns="http://www.w3.org/2000/svg">
<path d="M0.589736 0.500141C0.264034 0.500141 2.86121e-07 0.764175 2.83122e-07 1.08988L5.43038e-09 31.247C2.43127e-09 31.5727 0.264033 31.8368 0.589735 31.8368H6.30647C6.63217 31.8368 6.8962 31.5727 6.8962 31.247V22.8782C6.8962 22.2476 7.75277 22.0571 8.02007 22.6283L14.8206 37.16C14.9176 37.3673 15.1258 37.4998 15.3547 37.4998H19.0387H22.1257C22.5684 37.4998 22.8532 37.0301 22.6487 36.6375L13.8284 19.7084C13.7214 19.5031 13.7445 19.2542 13.8873 19.072L23.1709 7.23078C23.4743 6.84374 23.1985 6.27719 22.7067 6.27719H15.5246C15.3358 6.27719 15.1584 6.36763 15.0474 6.52044L7.96316 16.278C7.62746 16.7404 6.8962 16.5029 6.8962 15.9315V1.08988C6.8962 0.764175 6.63217 0.500141 6.30647 0.500141H3.4481H0.589736Z" fill="#48C989"/>
<path d="M2.70021 0.500141C2.37451 0.500141 2.11047 0.764175 2.11047 1.08988L2.11047 31.247C2.11047 31.5727 2.37451 31.8368 2.70021 31.8368H8.41694C8.74264 31.8368 9.00667 31.5727 9.00667 31.247V22.8782C9.00667 22.2476 9.86325 22.0571 10.1305 22.6283L16.9311 37.16C17.0281 37.3673 17.2363 37.4998 17.4652 37.4998H21.1492H24.2361C24.6788 37.4998 24.9637 37.0301 24.7592 36.6375L15.9389 19.7084C15.8319 19.5031 15.8549 19.2542 15.9978 19.072L25.2813 7.23078C25.5848 6.84374 25.309 6.27719 24.8172 6.27719H17.6351C17.4463 6.27719 17.2688 6.36763 17.1579 6.52044L10.0736 16.278C9.73793 16.7404 9.00667 16.5029 9.00667 15.9315V1.08988C9.00667 0.764175 8.74264 0.500141 8.41694 0.500141H5.55857H2.70021Z" fill="#48C989"/>
<path d="M2.70021 0.500393C2.37451 0.500393 2.11047 0.764423 2.11047 1.09013L2.11047 31.2473C2.11047 31.573 2.37451 31.837 2.70021 31.837H8.41694C8.74264 31.837 9.00667 31.573 9.00667 31.2473V25.3175C9.00667 24.71 9.81433 24.4993 10.111 25.0295L16.9212 37.1983C17.0255 37.3846 17.2223 37.5 17.4358 37.5H21.1492H24.2361C24.6788 37.5 24.9637 37.0304 24.7592 36.6378L15.9389 19.7086C15.8319 19.5033 15.8549 19.2545 15.9978 19.0723L22.3181 11.0107C22.758 10.4496 21.9737 9.68778 21.4232 10.1409C17.4336 13.4246 11.8662 17.8423 9.00667 19.3715C4.84837 21.5952 7.95581 18.6942 8.8075 17.9255C8.93367 17.8117 9.00667 17.6503 9.00667 17.4804V1.09013C9.00667 0.764423 8.74264 0.500393 8.41694 0.500393H5.55857H2.70021Z" fill="#121421"/>
<path d="M34.0175 23.1966C34.0175 22.2291 33.7735 21.4671 33.2855 20.9106C32.7804 20.3541 32.1211 20.0758 31.3078 20.0758C30.4687 20.0758 29.8095 20.3541 29.33 20.9106C28.842 21.45 28.598 22.212 28.598 23.1966C28.598 24.1555 28.8334 24.9089 29.3043 25.4569C29.818 26.0219 30.4858 26.3045 31.3078 26.3045C32.1297 26.3045 32.7975 26.0219 33.3112 25.4569C33.7821 24.8918 34.0175 24.1384 34.0175 23.1966ZM38.5638 23.1966C38.5638 24.1469 38.3798 25.0331 38.0116 25.855C37.6263 26.7283 37.0998 27.4817 36.432 28.1153C35.6785 28.8173 34.8994 29.3268 34.0946 29.6436C33.2556 29.9775 32.3266 30.1444 31.3078 30.1444C30.2803 30.1444 29.3514 29.9775 28.5209 29.6436C27.6733 29.3096 26.8899 28.8045 26.1707 28.1281C25.4601 27.4432 24.9464 26.6855 24.6296 25.855C24.2614 25.0587 24.0774 24.1726 24.0774 23.1966C24.0774 22.2462 24.2614 21.3515 24.6296 20.5125C24.9721 19.6648 25.4901 18.9114 26.1836 18.2522C26.8599 17.6015 27.6391 17.1006 28.5209 16.7496C29.36 16.4242 30.2889 16.2616 31.3078 16.2616C32.318 16.2616 33.247 16.4242 34.0946 16.7496C34.9765 17.1006 35.7556 17.6015 36.432 18.2522C37.1426 18.8943 37.6691 19.6477 38.0116 20.5125C38.3798 21.3515 38.5638 22.2462 38.5638 23.1966ZM51.1111 23.1709C51.1111 22.152 50.8499 21.3558 50.3277 20.7822C49.7711 20.2 49.0348 19.9089 48.1187 19.9089C47.1941 19.9089 46.4663 20.2 45.9355 20.7822C45.4047 21.3644 45.1392 22.1606 45.1392 23.1709C45.1392 24.1897 45.4047 24.9902 45.9355 25.5724C46.4578 26.1461 47.1855 26.4329 48.1187 26.4329C49.0434 26.4329 49.7797 26.1461 50.3277 25.5724C50.8499 24.9988 51.1111 24.1983 51.1111 23.1709ZM55.1693 9.73751V29.6436H50.9569V27.5374C50.3747 28.4192 49.7155 29.0699 48.9792 29.4894C48.2942 29.9261 47.4894 30.1444 46.5648 30.1444C44.7497 30.1444 43.2985 29.5108 42.2111 28.2437C41.1323 26.9766 40.593 25.2856 40.593 23.1709C40.593 21.1161 41.1366 19.4422 42.224 18.1494C43.3028 16.8908 44.6983 16.2616 46.4107 16.2616C47.5066 16.2616 48.397 16.4628 49.0819 16.8652C49.7412 17.2333 50.3576 17.8883 50.9313 18.8301C50.897 18.5989 50.8628 18.2479 50.8285 17.777C50.7943 17.2633 50.7771 16.8438 50.7771 16.5184V9.73751H55.1693ZM57.8534 35.3714L61.5007 27.6658L56.2738 16.6725H61.3466L63.1574 21.3601C63.3372 21.7882 63.4614 22.1563 63.5299 22.4645C63.624 22.7813 63.7054 23.0981 63.7739 23.4149C63.8252 23.1067 63.9023 22.7813 64.005 22.4389C64.0735 22.1392 64.1977 21.7796 64.3775 21.3601L66.214 16.6725H71.107L62.9519 35.3714H57.8534Z" fill="#121421"/>
<path d="M72.8793 29.6436V10.842H84.3991V14.9645H77.875V18.2265H84.0267V22.2591H77.875V29.6436H72.8793ZM86.7621 29.6436V16.6725H91.3341V29.6436H86.7621ZM87.3401 13.3334H87.3657C87.3657 12.854 87.5327 12.4601 87.8666 12.1519C88.2005 11.818 88.6029 11.6511 89.0738 11.6511C89.5704 11.6511 89.9771 11.8095 90.2939 12.1262C90.6192 12.443 90.7819 12.8454 90.7819 13.3334C90.7819 13.83 90.6149 14.241 90.281 14.5663C89.9557 14.9002 89.5533 15.0672 89.0738 15.0672C88.5858 15.0672 88.1748 14.8917 87.8409 14.5406C87.507 14.2153 87.3401 13.8129 87.3401 13.3334ZM104.023 21.4885C103.946 20.7693 103.667 20.1828 103.188 19.7291C102.708 19.2753 102.122 19.0484 101.428 19.0484C100.701 19.0484 100.11 19.2496 99.6561 19.652C99.1852 20.1058 98.8898 20.7179 98.77 21.4885H104.023ZM108.53 24.0699H98.6672C98.6929 25.0801 98.9455 25.8507 99.4249 26.3815C99.9215 26.9295 100.641 27.2035 101.583 27.2035C102.267 27.2035 102.854 27.0708 103.342 26.8053C103.839 26.5228 104.198 26.1375 104.421 25.6495L107.863 27.0365C107.46 28.0211 106.732 28.7831 105.679 29.3225C104.635 29.8704 103.355 30.1444 101.839 30.1444C99.5791 30.1444 97.764 29.5108 96.3941 28.2437C95.0328 27.0108 94.3521 25.3627 94.3521 23.2993C94.3521 21.2873 95.0328 19.6049 96.3941 18.2522C97.7554 16.9251 99.4849 16.2616 101.583 16.2616C103.723 16.2616 105.414 16.9337 106.655 18.2778C107.289 18.9713 107.76 19.7804 108.068 20.7051C108.376 21.6212 108.53 22.67 108.53 23.8515V24.0699ZM111.189 29.6436V16.6725H115.504V19.7291C115.958 18.6075 116.561 17.7727 117.315 17.2248C118.094 16.6682 119.031 16.39 120.127 16.39C120.376 16.39 120.56 16.3985 120.679 16.4157C120.774 16.4242 120.859 16.4328 120.936 16.4414C121.013 16.4414 121.112 16.4499 121.232 16.467L120.795 20.628C120.478 20.5253 120.204 20.4525 119.973 20.4097C119.631 20.3755 119.378 20.3583 119.215 20.3583C118.102 20.3583 117.242 20.7008 116.634 21.3858C116.035 22.0621 115.735 23.0253 115.735 24.2753V29.6436H111.189Z" fill="#48C989"/>
</svg>
